<?xml version="1.0" encoding="utf-8"?>
<!-- Generator: Adobe Illustrator 22.1.0, SVG Export Plug-In . SVG Version: 6.00 Build 0)  -->
<svg version="1.1" id="Layer_1" xmlns="http://www.w3.org/2000/svg" xmlns:xlink="http://www.w3.org/1999/xlink" x="0px" y="0px"
	 viewBox="0 0 16.9 14.6" enable-background="new 0 0 16.9 14.6" xml:space="preserve">
<path fill="#273238" d="M9.3,11.9L9.3,11.9L8.9,9.6l-0.1,0c-2.9-0.6-5.9-0.3-8.6,1v2.5C3,11.6,6.2,11.2,9.3,11.9"/>
<path fill="#273238" d="M8.4,7.3L8.4,7.3L8.1,5.1L8,5.1C5.4,4.5,2.7,4.7,0.2,5.7v2.4C2.8,7,5.7,6.7,8.4,7.3"/>
<path fill="#273238" d="M7.6,2.8L7.6,2.8L7.2,0.6l-0.1,0C4.8,0,2.5,0.2,0.2,0.9v2.4C2.6,2.5,5.1,2.3,7.6,2.8"/>
<path fill="#273238" d="M9.4,11.9L9.4,11.9l0.4,2.3l0.1,0c2.3,0.5,4.7,0.4,6.9-0.3v-2.4C14.4,12.2,11.8,12.4,9.4,11.9"/>
<path fill="#273238" d="M8.5,7.4L8.5,7.4l0.4,2.2l0.1,0c2.6,0.6,5.3,0.3,7.7-0.6V6.5C14.1,7.7,11.3,8,8.5,7.4"/>
<path fill="#273238" d="M7.7,2.8L7.7,2.8l0.4,2.2l0.1,0c2.9,0.6,5.9,0.3,8.6-1V1.6C13.9,3.1,10.8,3.5,7.7,2.8"/>
</svg>
