<?xml version="1.0" encoding="utf-8"?>
<!-- Generator: Adobe Illustrator 22.1.0, SVG Export Plug-In . SVG Version: 6.00 Build 0)  -->
<svg version="1.1" id="Layer_1" xmlns="http://www.w3.org/2000/svg" xmlns:xlink="http://www.w3.org/1999/xlink" x="0px" y="0px"
	 viewBox="0 0 109.3 65.8" style="enable-background:new 0 0 109.3 65.8;" xml:space="preserve">
<style type="text/css">
	.st0{fill:none;stroke:#141B1E;stroke-width:0.949;stroke-miterlimit:10;}
</style>
<g>
	<path class="st0" d="M0,1.3c6.1,0,6.1,12,12.1,12c6.1,0,6.1-12,12.1-12c6.1,0,6.1,12,12.1,12c6.1,0,6.1-12,12.1-12
		c6.1,0,6.1,12,12.1,12c6.1,0,6.1-12,12.2-12c6.1,0,6.1,12,12.1,12c6.1,0,6.1-12,12.2-12c6.1,0,6.1,12,12.2,12"/>
</g>
<g>
	<path class="st0" d="M0,14.1c6.1,0,6.1,12,12.1,12c6.1,0,6.1-12,12.1-12c6.1,0,6.1,12,12.1,12c6.1,0,6.1-12,12.1-12
		c6.1,0,6.1,12,12.1,12c6.1,0,6.1-12,12.2-12c6.1,0,6.1,12,12.1,12c6.1,0,6.1-12,12.2-12c6.1,0,6.1,12,12.2,12"/>
</g>
<g>
	<path class="st0" d="M0,26.9c6.1,0,6.1,12,12.1,12c6.1,0,6.1-12,12.1-12c6.1,0,6.1,12,12.1,12c6.1,0,6.1-12,12.1-12
		c6.1,0,6.1,12,12.1,12c6.1,0,6.1-12,12.2-12c6.1,0,6.1,12,12.1,12c6.1,0,6.1-12,12.2-12c6.1,0,6.1,12,12.2,12"/>
</g>
<g>
	<path class="st0" d="M0,39.7c6.1,0,6.1,12,12.1,12c6.1,0,6.1-12,12.1-12c6.1,0,6.1,12,12.1,12c6.1,0,6.1-12,12.1-12
		c6.1,0,6.1,12,12.1,12c6.1,0,6.1-12,12.2-12c6.1,0,6.1,12,12.1,12c6.1,0,6.1-12,12.2-12c6.1,0,6.1,12,12.2,12"/>
</g>
<g>
	<path class="st0" d="M0,52.5c6.1,0,6.1,12,12.1,12c6.1,0,6.1-12,12.1-12c6.1,0,6.1,12,12.1,12c6.1,0,6.1-12,12.1-12
		c6.1,0,6.1,12,12.1,12c6.1,0,6.1-12,12.2-12c6.1,0,6.1,12,12.1,12c6.1,0,6.1-12,12.2-12c6.1,0,6.1,12,12.2,12"/>
</g>
</svg>
