<?xml version="1.0" encoding="utf-8"?>
<!-- Generator: Adobe Illustrator 22.1.0, SVG Export Plug-In . SVG Version: 6.00 Build 0)  -->
<svg version="1.1" id="Layer_1" xmlns="http://www.w3.org/2000/svg" xmlns:xlink="http://www.w3.org/1999/xlink" x="0px" y="0px"
	 viewBox="0 0 296 151.3" style="enable-background:new 0 0 296 151.3;" xml:space="preserve">
<style type="text/css">
	.st0{fill:none;stroke:#141B1E;stroke-width:0.949;stroke-miterlimit:10;}
</style>
<g>
	<g>
		<polyline class="st0" points="4.2,146.3 24.6,127 24.8,127 45.2,146.3 65.5,127 85.9,146.3 106.2,127 106.5,127 126.8,146.3 
			147.2,127 167.5,146.3 187.9,127 188.1,127 208.5,146.3 228.9,127 249.2,146.3 269.6,127 269.8,127 290.2,146.3 		"/>
	</g>
	<g>
		<polyline class="st0" points="4.2,136.2 24.6,117 24.8,117 45.2,136.2 65.5,117 85.9,136.2 106.2,117 106.5,117 126.8,136.2 
			147.2,117 167.5,136.2 187.9,117 188.1,117 208.5,136.2 228.9,117 249.2,136.2 269.6,117 269.8,117 290.2,136.2 		"/>
	</g>
	<g>
		<polyline class="st0" points="4.2,126.2 24.6,106.9 24.8,106.9 45.2,126.2 65.5,106.9 85.9,126.2 106.2,106.9 106.5,106.9 
			126.8,126.2 147.2,106.9 167.5,126.2 187.9,106.9 188.1,106.9 208.5,126.2 228.9,106.9 249.2,126.2 269.6,106.9 269.8,106.9 
			290.2,126.2 		"/>
	</g>
	<g>
		<polyline class="st0" points="4.2,116.1 24.6,96.9 24.8,96.9 45.2,116.1 65.5,96.9 85.9,116.1 106.2,96.9 106.5,96.9 126.8,116.1 
			147.2,96.9 167.5,116.1 187.9,96.9 188.1,96.9 208.5,116.1 228.9,96.9 249.2,116.1 269.6,96.9 269.8,96.9 290.2,116.1 		"/>
	</g>
	<g>
		<polyline class="st0" points="4.2,106.1 24.6,86.8 24.8,86.8 45.2,106.1 65.5,86.8 85.9,106.1 106.2,86.8 106.5,86.8 126.8,106.1 
			147.2,86.8 167.5,106.1 187.9,86.8 188.1,86.8 208.5,106.1 228.9,86.8 249.2,106.1 269.6,86.8 269.8,86.8 290.2,106.1 		"/>
	</g>
	<g>
		<polyline class="st0" points="4.2,96 24.6,76.7 24.8,76.7 45.2,96 65.5,76.7 85.9,96 106.2,76.7 106.5,76.7 126.8,96 147.2,76.7 
			167.5,96 187.9,76.7 188.1,76.7 208.5,96 228.9,76.7 249.2,96 269.6,76.7 269.8,76.7 290.2,96 		"/>
	</g>
	<g>
		<polyline class="st0" points="4.2,86 24.6,66.7 24.8,66.7 45.2,86 65.5,66.7 85.9,86 106.2,66.7 106.5,66.7 126.8,86 147.2,66.7 
			167.5,86 187.9,66.7 188.1,66.7 208.5,86 228.9,66.7 249.2,86 269.6,66.7 269.8,66.7 290.2,86 		"/>
	</g>
	<g>
		<polyline class="st0" points="4.2,75.9 24.6,56.6 24.8,56.6 45.2,75.9 65.5,56.6 85.9,75.9 106.2,56.6 106.5,56.6 126.8,75.9 
			147.2,56.6 167.5,75.9 187.9,56.6 188.1,56.6 208.5,75.9 228.9,56.6 249.2,75.9 269.6,56.6 269.8,56.6 290.2,75.9 		"/>
	</g>
	<g>
		<polyline class="st0" points="4.2,65.9 24.6,46.6 24.8,46.6 45.2,65.9 65.5,46.6 85.9,65.9 106.2,46.6 106.5,46.6 126.8,65.9 
			147.2,46.6 167.5,65.9 187.9,46.6 188.1,46.6 208.5,65.9 228.9,46.6 249.2,65.9 269.6,46.6 269.8,46.6 290.2,65.9 		"/>
	</g>
	<g>
		<polyline class="st0" points="4.2,55.8 24.6,36.5 24.8,36.5 45.2,55.8 65.5,36.5 85.9,55.8 106.2,36.5 106.5,36.5 126.8,55.8 
			147.2,36.5 167.5,55.8 187.9,36.5 188.1,36.5 208.5,55.8 228.9,36.5 249.2,55.8 269.6,36.5 269.8,36.5 290.2,55.8 		"/>
	</g>
	<g>
		<polyline class="st0" points="4.2,45.8 24.6,26.5 24.8,26.5 45.2,45.8 65.5,26.5 85.9,45.8 106.2,26.5 106.5,26.5 126.8,45.8 
			147.2,26.5 167.5,45.8 187.9,26.5 188.1,26.5 208.5,45.8 228.9,26.5 249.2,45.8 269.6,26.5 269.8,26.5 290.2,45.8 		"/>
	</g>
	<g>
		<polyline class="st0" points="4.2,35.7 24.6,16.4 24.8,16.4 45.2,35.7 65.5,16.4 85.9,35.7 106.2,16.4 106.5,16.4 126.8,35.7 
			147.2,16.4 167.5,35.7 187.9,16.4 188.1,16.4 208.5,35.7 228.9,16.4 249.2,35.7 269.6,16.4 269.8,16.4 290.2,35.7 		"/>
	</g>
	<g>
		<polyline class="st0" points="4.2,25.6 24.6,6.4 24.8,6.4 45.2,25.6 65.5,6.4 85.9,25.6 106.2,6.4 106.5,6.4 126.8,25.6 
			147.2,6.4 167.5,25.6 187.9,6.4 188.1,6.4 208.5,25.6 228.9,6.4 249.2,25.6 269.6,6.4 269.8,6.4 290.2,25.6 		"/>
	</g>
</g>
</svg>
