<?xml version="1.0" encoding="utf-8"?>
<!-- Generator: Adobe Illustrator 22.1.0, SVG Export Plug-In . SVG Version: 6.00 Build 0)  -->
<svg version="1.1" id="Layer_1" xmlns="http://www.w3.org/2000/svg" xmlns:xlink="http://www.w3.org/1999/xlink" x="0px" y="0px"
	 viewBox="0 0 1641.2 1641.2" enable-background="new 0 0 1641.2 1641.2" xml:space="preserve">
<rect x="493.4" y="371.4" transform="matrix(0.7071 0.7071 -0.7071 0.7071 858.3854 -427.0208)" fill="none" stroke="#F89B0E" stroke-width="60" stroke-miterlimit="10" width="902.5" height="902.5"/>
<rect x="371.4" y="371.4" transform="matrix(0.7071 0.7071 -0.7071 0.7071 822.6525 -340.7538)" fill="none" stroke="#6CCCCC" stroke-width="60" stroke-miterlimit="10" width="902.5" height="902.5"/>
<rect x="253.4" y="371.4" transform="matrix(0.7071 0.7071 -0.7071 0.7071 788.0911 -257.3152)" fill="none" stroke="#F95584" stroke-width="60" stroke-miterlimit="10" width="902.5" height="902.5"/>
<rect x="1018.6" y="532.7" transform="matrix(0.7071 -0.7071 0.7071 0.7071 -205.8239 958.847)" fill="#F95584" width="71.9" height="390.3"/>
<rect x="918.1" y="632" transform="matrix(0.7071 -0.7071 0.7071 0.7071 -305.4759 916.869)" fill="#F95584" width="71.9" height="390.3"/>
<rect x="817.6" y="731.3" transform="matrix(0.7071 -0.7071 0.7071 0.7071 -405.1278 874.8909)" fill="#F95584" width="71.9" height="390.3"/>
<line fill="#662E41" x1="23.3" y1="822.8" x2="349.3" y2="822.8"/>
<line fill="#662E41" x1="1297.3" y1="822.8" x2="1623.3" y2="822.8"/>
<circle fill="#F95584" cx="541.3" cy="822.8" r="47"/>
<g>
</g>
<g>
</g>
<g>
</g>
<g>
</g>
<g>
</g>
<g>
</g>
<g>
</g>
<g>
</g>
<g>
</g>
<g>
</g>
<g>
</g>
<g>
</g>
<g>
</g>
<g>
</g>
<g>
</g>
</svg>
