<?xml version="1.0" encoding="utf-8"?>
<!-- Generator: Adobe Illustrator 22.1.0, SVG Export Plug-In . SVG Version: 6.00 Build 0)  -->
<svg version="1.1" id="Layer_1" xmlns="http://www.w3.org/2000/svg" xmlns:xlink="http://www.w3.org/1999/xlink" x="0px" y="0px"
	 viewBox="0 0 1417.9 1417.9" enable-background="new 0 0 1417.9 1417.9" xml:space="preserve">
<rect x="2511.4" y="-427.6" transform="matrix(0.7071 -0.7071 0.7071 0.7071 851.0267 2101.8342)" fill="none" stroke="#F89B0E" stroke-width="60" stroke-miterlimit="10" width="902.5" height="902.5"/>
<rect x="2389.4" y="-427.6" transform="matrix(0.7071 -0.7071 0.7071 0.7071 815.2934 2015.568)" fill="none" stroke="#6CCCCC" stroke-width="60" stroke-miterlimit="10" width="902.5" height="902.5"/>
<rect x="214.7" y="214.7" transform="matrix(0.7071 -0.7071 0.7071 0.7071 -293.659 708.9554)" fill="#F89B0E" width="988.5" height="988.5"/>
<rect x="1181.6" y="-905.3" transform="matrix(0.7071 -0.7071 0.7071 0.7071 858.7615 652.9086)" fill="#F95584" width="71.9" height="390.3"/>
<rect x="1100.1" y="-810" transform="matrix(0.7071 -0.7071 0.7071 0.7071 767.5029 623.1919)" fill="#F95584" width="71.9" height="390.3"/>
<rect x="980.6" y="-706.7" transform="matrix(0.7071 -0.7071 0.7071 0.7071 659.4575 568.9483)" fill="#F95584" width="71.9" height="390.3"/>
<line fill="none" x1="-300.7" y1="500.8" x2="25.3" y2="500.8"/>
<line fill="none" x1="973.3" y1="500.8" x2="1299.3" y2="500.8"/>
<circle fill="#F95584" cx="704.3" cy="-615.2" r="47"/>
<g>
</g>
<g>
</g>
<g>
</g>
<g>
</g>
<g>
</g>
<g>
</g>
<g>
</g>
<g>
</g>
<g>
</g>
<g>
</g>
<g>
</g>
<g>
</g>
<g>
</g>
<g>
</g>
<g>
</g>
</svg>
