<svg width="480" height="480" viewBox="0 0 480 480" fill="none" xmlns="http://www.w3.org/2000/svg">
<path d="M368 240C368 310.691 310.691 368 240 368C169.309 368 112 310.691 112 240C112 169.309 169.309 112 240 112C310.691 112 368 169.309 368 240Z" fill="#FFFFFE"/>
<path d="M248 472V408C248 403.582 244.418 400 240 400C235.582 400 232 403.582 232 408V472C232 476.418 235.582 480 240 480C244.418 480 248 476.418 248 472Z" fill="#FFFFFE"/>
<path d="M240 80C244.418 80 248 76.418 248 72V8C248 3.58203 244.418 0 240 0C235.582 0 232 3.58203 232 8V72C232 76.418 235.582 80 240 80Z" fill="#FFFFFE"/>
<path d="M114.344 125.656C117.484 128.687 122.473 128.645 125.559 125.559C128.645 122.473 128.687 117.484 125.656 114.344L77.6562 66.3437C74.5156 63.3125 69.5273 63.3555 66.4414 66.4414C63.3555 69.5273 63.3125 74.5156 66.3437 77.6562L114.344 125.656Z" fill="#FFFFFE"/>
<path d="M365.656 354.344C362.516 351.312 357.527 351.355 354.441 354.441C351.355 357.527 351.312 362.516 354.344 365.656L402.344 413.656C405.484 416.687 410.473 416.645 413.559 413.559C416.645 410.473 416.687 405.484 413.656 402.344L365.656 354.344Z" fill="#FFFFFE"/>
<path d="M360 128C362.121 128 364.156 127.156 365.656 125.656L413.656 77.6562C416.687 74.5156 416.645 69.5273 413.559 66.4414C410.473 63.3555 405.484 63.3125 402.344 66.3437L354.344 114.344C352.059 116.633 351.371 120.074 352.609 123.062C353.848 126.051 356.766 128 360 128Z" fill="#FFFFFE"/>
<path d="M472 232H408C403.582 232 400 235.582 400 240C400 244.418 403.582 248 408 248H472C476.418 248 480 244.418 480 240C480 235.582 476.418 232 472 232Z" fill="#FFFFFE"/>
<path d="M8 248H72C76.418 248 80 244.418 80 240C80 235.582 76.418 232 72 232H8C3.58203 232 0 235.582 0 240C0 244.418 3.58203 248 8 248Z" fill="#FFFFFE"/>
<path d="M77.6563 413.656L125.656 365.656C128.688 362.516 128.645 357.527 125.559 354.441C122.473 351.355 117.484 351.312 114.344 354.344L66.3438 402.344C64.2656 404.352 63.4297 407.328 64.1641 410.125C64.8945 412.922 67.0781 415.105 69.875 415.836C72.6719 416.57 75.6484 415.734 77.6563 413.656V413.656Z" fill="#FFFFFE"/>
</svg>
